<?xml version="1.0" standalone="no"?>
<!DOCTYPE svg PUBLIC "-//W3C//DTD SVG 20010904//EN"
 "http://www.w3.org/TR/2001/REC-SVG-20010904/DTD/svg10.dtd">
<svg version="1.0" xmlns="http://www.w3.org/2000/svg"
 width="192.000000pt" height="192.000000pt" viewBox="0 0 192.000000 192.000000"
 preserveAspectRatio="xMidYMid meet">
<metadata>
Created by potrace 1.11, written by Peter Selinger 2001-2013
</metadata>
<g transform="translate(0.000000,192.000000) scale(0.100000,-0.100000)"
fill="#000000" stroke="none">
<path d="M940 1882 c-54 -81 -373 -381 -500 -470 -10 -7 24 -20 39 -14 9 3 40
29 69 56 67 64 82 73 83 49 0 -10 1 -47 2 -83 l2 -65 55 2 c43 1 58 6 72 23
16 20 16 24 2 51 -10 20 -12 35 -5 46 22 40 -28 75 -89 62 -35 -8 -35 -8 30
54 134 127 262 242 272 246 17 6 120 -102 105 -111 -9 -6 -9 -10 1 -20 10 -10
14 -10 20 -1 8 13 18 4 233 -204 59 -57 88 -78 125 -89 l49 -14 -41 37 c-22
21 -72 65 -110 98 -95 83 -293 280 -339 338 -20 26 -40 47 -44 47 -3 0 -17
-17 -31 -38z m-209 -378 c11 -14 10 -18 -5 -30 -11 -7 -28 -12 -40 -9 -12 2
-24 4 -27 4 -3 1 -4 11 -2 24 6 28 54 35 74 11z m8 -78 c22 -26 2 -47 -43 -44
-33 2 -41 7 -42 23 0 11 1 23 3 28 7 12 70 8 82 -7z"/>
<path d="M1027 1726 c-6 -15 1 -26 15 -26 11 0 10 27 -1 34 -5 3 -11 0 -14 -8z"/>
<path d="M875 1722 c-6 -4 -11 -44 -11 -89 -1 -72 1 -82 18 -86 11 -3 27 -4
36 -2 15 3 16 -7 12 -87 -6 -110 5 -142 24 -65 3 15 11 27 17 27 18 0 22 -30
6 -48 -25 -28 -68 -135 -63 -156 3 -11 0 -26 -6 -33 -6 -7 -8 -13 -5 -13 3 0
2 -13 -3 -29 -6 -21 -4 -33 7 -44 13 -13 12 -19 -5 -53 -43 -87 -54 -105 -59
-100 -7 7 20 66 29 66 5 0 8 9 8 21 0 16 -4 19 -22 14 -50 -15 -89 -39 -132
-79 -36 -33 -45 -49 -46 -76 -2 -49 9 -103 23 -115 16 -13 19 -28 22 -105 1
-37 -3 -79 -11 -98 -9 -22 -12 -54 -8 -88 2 -30 0 -63 -6 -73 -5 -11 -11 -31
-12 -45 -4 -40 -16 -30 -15 12 0 43 -11 212 -18 262 -3 19 -7 53 -9 75 -9 78
-42 261 -63 340 -8 33 -17 67 -18 75 -2 8 -14 47 -25 85 -12 39 -24 80 -27 92
-4 19 -30 39 -39 30 -2 -1 10 -45 26 -97 16 -52 31 -106 34 -120 2 -14 11 -54
20 -90 23 -94 47 -245 61 -375 3 -27 7 -61 10 -75 5 -32 18 -223 18 -273 -1
-30 3 -37 16 -35 11 2 15 12 13 31 -5 40 13 33 24 -10 8 -32 13 -38 34 -35 37
4 42 14 27 58 -14 40 -15 105 -3 159 3 17 8 40 11 53 2 13 18 59 36 102 34 85
50 97 83 61 17 -19 55 -32 100 -36 12 -1 23 -12 26 -26 4 -13 15 -40 25 -59
11 -19 19 -39 20 -45 0 -5 5 -32 10 -60 4 -27 8 -77 8 -110 -1 -76 19 -97 87
-93 51 3 54 10 30 78 -16 44 -18 117 -4 149 3 9 8 30 10 46 4 33 8 51 17 78
16 42 20 54 23 79 2 15 15 45 28 67 17 27 24 50 22 73 -5 45 -46 129 -87 176
-30 35 -91 129 -87 135 1 1 -4 13 -11 25 -8 16 -19 22 -31 19 -15 -4 -17 -1
-10 23 18 62 69 119 134 149 35 16 43 17 61 5 36 -24 109 6 90 37 -6 9 -11 9
-19 -3 -17 -22 -40 -27 -60 -13 -26 20 -12 33 35 33 49 1 53 4 45 36 -6 26
-37 42 -71 37 -29 -4 -42 -18 -49 -53 -7 -37 -17 -31 -22 13 -2 18 -6 35 -10
38 -10 10 -21 -20 -16 -45 4 -21 1 -24 -26 -24 -41 0 -49 16 -20 39 33 28 14
39 -22 13 -16 -12 -31 -22 -34 -22 -8 0 7 45 19 57 7 7 11 38 10 80 -2 88 -3
93 -15 93 -5 0 -9 -28 -8 -64 1 -45 -3 -68 -14 -79 -9 -9 -16 -36 -17 -68 -2
-61 -17 -77 -46 -48 l-20 20 25 19 c35 27 18 36 -22 12 l-34 -21 0 49 c0 34 4
50 13 50 7 0 20 11 28 24 15 23 15 27 -1 51 -12 19 -14 29 -6 34 14 8 10 34
-7 55 -14 17 -87 22 -106 8z m79 -18 c19 -7 21 -30 5 -40 -7 -4 -25 -8 -40
-10 -25 -3 -29 0 -29 20 0 12 3 26 7 29 8 9 36 9 57 1z m15 -83 c8 -5 11 -16
6 -30 -6 -19 -13 -22 -48 -19 -42 3 -44 5 -38 48 1 12 61 13 80 1z m349 -168
c2 -9 -8 -13 -33 -13 -33 0 -36 2 -25 15 15 18 51 16 58 -2z m-245 -96 c4 3 7
1 7 -5 0 -7 -7 -12 -15 -12 -8 0 -15 -4 -15 -9 0 -5 -8 -12 -19 -16 -10 -3
-18 -13 -17 -22 0 -9 -5 -18 -12 -20 -21 -8 -4 59 21 84 18 17 24 19 33 7 6
-7 14 -11 17 -7z m-33 -415 c0 -5 -7 -9 -15 -9 -8 0 -12 4 -9 9 3 4 9 8 15 8
5 0 9 -4 9 -8z m-131 -49 c2 -2 0 -3 -6 -3 -6 0 -21 9 -34 21 l-24 20 30 -17
c17 -10 32 -19 34 -21z m75 27 c-14 -14 -56 -22 -49 -9 4 5 10 7 14 5 4 -3 13
-1 21 5 20 12 26 11 14 -1z m37 -23 c-10 -9 -11 -8 -5 6 3 10 9 15 12 12 3 -3
0 -11 -7 -18z m110 -264 c6 -41 5 -211 -2 -223 -7 -13 -9 -13 -9 0 -1 8 -3 23
-5 33 -2 10 1 32 5 49 6 20 5 38 -2 52 -18 33 -20 96 -2 96 7 0 15 -3 15 -7z"/>
<path d="M1027 1673 c-3 -7 -2 -103 2 -125 0 -5 6 -8 11 -8 6 0 10 30 10 70 0
61 -10 88 -23 63z"/>
<path d="M1180 1525 c0 -8 7 -15 15 -15 9 0 12 6 9 15 -4 8 -10 15 -15 15 -5
0 -9 -7 -9 -15z"/>
<path d="M818 1484 c-28 -15 -38 -39 -31 -78 5 -26 38 -53 61 -50 6 1 16 2 21
3 21 3 41 34 41 65 0 52 -47 83 -92 60z m58 -31 c17 -41 4 -73 -30 -73 -25 0
-36 17 -36 55 0 35 52 49 66 18z"/>
<path d="M1452 1341 c-7 -4 -14 -16 -17 -27 -2 -10 -9 -37 -15 -59 -6 -22 -12
-47 -14 -56 -3 -9 -9 -33 -14 -53 -6 -20 -8 -36 -6 -36 3 0 1 -8 -5 -17 -5
-10 -11 -36 -15 -58 -6 -40 -9 -59 -26 -150 -9 -51 -18 -113 -26 -195 -2 -25
-7 -63 -10 -85 -10 -76 -13 -324 -4 -330 15 -9 18 8 25 138 3 69 8 135 9 144
2 10 7 54 11 98 4 44 9 94 11 110 3 17 7 48 9 70 3 22 7 51 10 65 3 14 8 41
11 60 8 52 19 108 35 180 6 25 12 53 14 62 2 9 11 44 21 78 18 63 17 74 -4 61z"/>
<path d="M881 638 c-38 -103 -38 -94 -3 -161 17 -34 33 -73 35 -86 5 -36 65
-91 98 -91 42 0 43 15 4 51 -19 19 -35 37 -35 42 0 5 -9 22 -20 37 -31 43 -33
109 -5 158 26 46 22 55 -32 67 -28 6 -34 3 -42 -17z"/>
<path d="M704 230 c-23 -9 -42 -30 -27 -30 5 0 8 -42 8 -92 l0 -93 61 -3 c47
-2 66 1 84 16 26 21 30 70 7 87 -11 8 -13 16 -6 26 14 22 11 65 -7 80 -18 15
-90 20 -120 9z m104 -25 c9 -8 8 -41 -1 -52 -9 -12 -88 -18 -99 -8 -2 3 -3 18
0 34 3 21 11 31 26 34 19 3 66 -2 74 -8z m13 -106 c24 -38 2 -60 -62 -62 l-54
-2 -1 35 c0 19 3 38 8 41 18 11 100 3 109 -12z"/>
<path d="M917 219 c-15 -21 -12 -55 5 -65 6 -4 -4 -19 -21 -35 -35 -32 -39
-57 -13 -88 23 -30 51 -32 89 -10 28 17 33 18 46 4 9 -8 23 -12 31 -9 13 5 12
9 -6 24 -19 15 -21 21 -11 43 8 17 9 29 3 32 -6 4 -13 -1 -16 -9 -7 -19 -21
-20 -37 -3 -19 20 -18 33 3 52 25 23 26 61 1 75 -31 16 -59 12 -74 -11z m62
-8 c16 -11 -2 -51 -24 -51 -20 0 -30 40 -14 51 17 11 21 11 38 0z m-10 -122
c22 -29 22 -31 4 -44 -32 -25 -79 -12 -78 22 0 15 31 53 43 53 5 0 18 -14 31
-31z"/>
<path d="M1108 228 c-28 -10 -34 -19 -21 -32 4 -4 6 -47 4 -96 l-3 -90 66 0
c53 0 70 4 86 20 24 24 26 63 4 85 -13 12 -14 19 -5 28 15 15 14 49 -2 71 -15
21 -87 29 -129 14z m110 -31 c31 -24 -5 -57 -64 -57 -40 0 -44 2 -40 23 3 12
5 27 5 34 2 22 71 22 99 0z m-2 -86 c7 -1 14 -11 18 -23 8 -32 -21 -54 -76
-56 -44 -3 -44 -3 -46 33 -2 20 0 39 2 44 4 7 47 7 102 2z"/>
</g>
</svg>
